<svg width="30" height="35" viewBox="0 0 30 35" fill="none" xmlns="http://www.w3.org/2000/svg">
<path d="M20.3312 20.3751H21.7062L21.5575 18.6827L20.8819 17.7596L15.8625 17.2018M15.8625 17.2018L13.5856 13.125H8.48437M15.8625 17.2018L5.33562 17.01M8.48437 13.125L5.33562 17.01M8.48437 13.125L7.99688 17.0457M5.33562 17.01L2.56687 17.8172L2.1875 19.9325L2.58312 20.3751H4.79187M8.12125 20.3751H17.035M12.5656 13.125L12.0763 17.1208" stroke="#363636" stroke-width="0.8" stroke-linecap="round" stroke-linejoin="round"/>
<path d="M12.9141 13.125H17.2984L22.0003 17.2018M22.0003 17.2018L27.0197 17.7596L27.6953 18.6827M22.0003 17.2018H15.8628M27.6953 18.6827L27.8128 20.3751H21.7066M27.6953 18.6827H21.5578" stroke="#363636" stroke-width="0.8" stroke-linecap="round" stroke-linejoin="round"/>
<path d="M18.6661 21.8749C19.5491 21.8749 20.2649 21.0399 20.2649 20.0097C20.2649 18.9796 19.5491 18.1445 18.6661 18.1445C17.7832 18.1445 17.0674 18.9796 17.0674 20.0097C17.0674 21.0399 17.7832 21.8749 18.6661 21.8749Z" stroke="#363636" stroke-width="0.8" stroke-linecap="round" stroke-linejoin="round"/>
<path d="M6.39074 21.8749C7.27371 21.8749 7.98949 21.0399 7.98949 20.0097C7.98949 18.9796 7.27371 18.1445 6.39074 18.1445C5.50778 18.1445 4.79199 18.9796 4.79199 20.0097C4.79199 21.0399 5.50778 21.8749 6.39074 21.8749Z" stroke="#363636" stroke-width="0.8" stroke-linecap="round" stroke-linejoin="round"/>
<path d="M9.63965 20.3743C9.71168 20.7973 9.90722 21.178 10.1929 21.4516C10.4787 21.7253 10.8369 21.8748 11.2065 21.8748C11.5762 21.8748 11.9344 21.7253 12.2201 21.4516C12.5058 21.178 12.7014 20.7973 12.7734 20.3743M21.7728 20.3743C21.8448 20.7973 22.0403 21.178 22.3261 21.4516C22.6118 21.7253 22.97 21.8748 23.3396 21.8748C23.7093 21.8748 24.0675 21.7253 24.3532 21.4516C24.6389 21.178 24.8345 20.7973 24.9065 20.3743" stroke="#363636" stroke-width="0.8" stroke-linecap="round" stroke-linejoin="round"/>
</svg>
