<svg width="22" height="22" viewBox="0 0 22 22" fill="none" xmlns="http://www.w3.org/2000/svg">
<path d="M17.6455 2.52084H4.35384C3.34132 2.52084 2.52051 3.34165 2.52051 4.35418V17.6458C2.52051 18.6584 3.34132 19.4792 4.35384 19.4792H17.6455C18.658 19.4792 19.4788 18.6584 19.4788 17.6458V4.35418C19.4788 3.34165 18.658 2.52084 17.6455 2.52084Z" stroke="black" stroke-width="0.8" stroke-linecap="round" stroke-linejoin="round"/>
<path d="M16.2021 6.82916C16.7717 6.82916 17.2334 6.36746 17.2334 5.79791C17.2334 5.22837 16.7717 4.76666 16.2021 4.76666C15.6326 4.76666 15.1709 5.22837 15.1709 5.79791C15.1709 6.36746 15.6326 6.82916 16.2021 6.82916Z" stroke="black" stroke-width="0.8" stroke-linecap="round" stroke-linejoin="round"/>
<path d="M11 14.7812C13.0883 14.7812 14.7812 13.0883 14.7812 11C14.7812 8.91167 13.0883 7.21875 11 7.21875C8.91167 7.21875 7.21875 8.91167 7.21875 11C7.21875 13.0883 8.91167 14.7812 11 14.7812Z" stroke="black" stroke-width="0.8" stroke-linecap="round" stroke-linejoin="round"/>
</svg>
